<mxfile host="app.diagrams.net" agent="Mozilla/5.0 (Windows NT 10.0; Win64; x64) AppleWebKit/537.36 (KHTML, like Gecko) Chrome/127.0.0.0 Safari/537.36" version="24.7.7">
  <diagram name="Page-1" id="Q3vNQCgLzrtsJ6CTCJEP">
    <mxGraphModel dx="1750" dy="942" grid="1" gridSize="10" guides="1" tooltips="1" connect="1" arrows="1" fold="1" page="1" pageScale="1" pageWidth="850" pageHeight="1100" math="0" shadow="0">
      <root>
        <mxCell id="0" />
        <mxCell id="1" parent="0" />
        <mxCell id="0zSylW8pa7HZD2Femb96-2" value="Client&lt;br&gt;FastAPI Python" style="shape=cube;whiteSpace=wrap;html=1;boundedLbl=1;backgroundOutline=1;darkOpacity=0.05;darkOpacity2=0.1;" vertex="1" parent="1">
          <mxGeometry x="120" y="230" width="120" height="80" as="geometry" />
        </mxCell>
        <mxCell id="0zSylW8pa7HZD2Femb96-3" value="Client&lt;br&gt;Postman" style="shape=cube;whiteSpace=wrap;html=1;boundedLbl=1;backgroundOutline=1;darkOpacity=0.05;darkOpacity2=0.1;" vertex="1" parent="1">
          <mxGeometry x="120" y="330" width="120" height="80" as="geometry" />
        </mxCell>
        <mxCell id="0zSylW8pa7HZD2Femb96-4" value="Client&lt;br&gt;HttpClient" style="shape=cube;whiteSpace=wrap;html=1;boundedLbl=1;backgroundOutline=1;darkOpacity=0.05;darkOpacity2=0.1;" vertex="1" parent="1">
          <mxGeometry x="120" y="450" width="120" height="80" as="geometry" />
        </mxCell>
        <mxCell id="0zSylW8pa7HZD2Femb96-13" style="edgeStyle=orthogonalEdgeStyle;rounded=0;orthogonalLoop=1;jettySize=auto;html=1;" edge="1" parent="1" source="0zSylW8pa7HZD2Femb96-5" target="0zSylW8pa7HZD2Femb96-10">
          <mxGeometry relative="1" as="geometry" />
        </mxCell>
        <mxCell id="0zSylW8pa7HZD2Femb96-5" value="NGINX&lt;br&gt;Load balancer&lt;br&gt;Localhost:&lt;span style=&quot;background-color: initial;&quot;&gt;80&lt;/span&gt;" style="shape=cube;whiteSpace=wrap;html=1;boundedLbl=1;backgroundOutline=1;darkOpacity=0.05;darkOpacity2=0.1;" vertex="1" parent="1">
          <mxGeometry x="360" y="330" width="120" height="110" as="geometry" />
        </mxCell>
        <mxCell id="0zSylW8pa7HZD2Femb96-56" style="edgeStyle=orthogonalEdgeStyle;rounded=0;orthogonalLoop=1;jettySize=auto;html=1;entryX=0.5;entryY=0;entryDx=0;entryDy=0;" edge="1" parent="1" source="0zSylW8pa7HZD2Femb96-9" target="0zSylW8pa7HZD2Femb96-55">
          <mxGeometry relative="1" as="geometry">
            <Array as="points">
              <mxPoint x="730" y="220" />
              <mxPoint x="730" y="370" />
              <mxPoint x="855" y="370" />
            </Array>
          </mxGeometry>
        </mxCell>
        <mxCell id="0zSylW8pa7HZD2Femb96-9" value="Rest Server&lt;br&gt;(Spring)&lt;br&gt;Localhost:x" style="shape=cube;whiteSpace=wrap;html=1;boundedLbl=1;backgroundOutline=1;darkOpacity=0.05;darkOpacity2=0.1;" vertex="1" parent="1">
          <mxGeometry x="560" y="180" width="120" height="80" as="geometry" />
        </mxCell>
        <mxCell id="0zSylW8pa7HZD2Femb96-57" style="edgeStyle=orthogonalEdgeStyle;rounded=0;orthogonalLoop=1;jettySize=auto;html=1;entryX=0.5;entryY=0;entryDx=0;entryDy=0;" edge="1" parent="1" source="0zSylW8pa7HZD2Femb96-10" target="0zSylW8pa7HZD2Femb96-55">
          <mxGeometry relative="1" as="geometry" />
        </mxCell>
        <mxCell id="0zSylW8pa7HZD2Femb96-10" value="Rest Server&lt;div&gt;Localhost:y&lt;/div&gt;" style="shape=cube;whiteSpace=wrap;html=1;boundedLbl=1;backgroundOutline=1;darkOpacity=0.05;darkOpacity2=0.1;" vertex="1" parent="1">
          <mxGeometry x="560" y="330" width="120" height="80" as="geometry" />
        </mxCell>
        <mxCell id="0zSylW8pa7HZD2Femb96-58" style="edgeStyle=orthogonalEdgeStyle;rounded=0;orthogonalLoop=1;jettySize=auto;html=1;entryX=0.5;entryY=0;entryDx=0;entryDy=0;" edge="1" parent="1" source="0zSylW8pa7HZD2Femb96-11" target="0zSylW8pa7HZD2Femb96-55">
          <mxGeometry relative="1" as="geometry">
            <Array as="points">
              <mxPoint x="730" y="510" />
              <mxPoint x="730" y="370" />
              <mxPoint x="855" y="370" />
            </Array>
          </mxGeometry>
        </mxCell>
        <mxCell id="0zSylW8pa7HZD2Femb96-11" value="Rest Server&lt;br&gt;localhost:z" style="shape=cube;whiteSpace=wrap;html=1;boundedLbl=1;backgroundOutline=1;darkOpacity=0.05;darkOpacity2=0.1;" vertex="1" parent="1">
          <mxGeometry x="560" y="470" width="120" height="80" as="geometry" />
        </mxCell>
        <mxCell id="0zSylW8pa7HZD2Femb96-12" style="edgeStyle=orthogonalEdgeStyle;rounded=0;orthogonalLoop=1;jettySize=auto;html=1;entryX=0;entryY=0;entryDx=0;entryDy=30;entryPerimeter=0;" edge="1" parent="1" source="0zSylW8pa7HZD2Femb96-5" target="0zSylW8pa7HZD2Femb96-9">
          <mxGeometry relative="1" as="geometry" />
        </mxCell>
        <mxCell id="0zSylW8pa7HZD2Femb96-14" style="edgeStyle=orthogonalEdgeStyle;rounded=0;orthogonalLoop=1;jettySize=auto;html=1;entryX=0.003;entryY=0.497;entryDx=0;entryDy=0;entryPerimeter=0;" edge="1" parent="1" source="0zSylW8pa7HZD2Femb96-5" target="0zSylW8pa7HZD2Femb96-11">
          <mxGeometry relative="1" as="geometry" />
        </mxCell>
        <mxCell id="0zSylW8pa7HZD2Femb96-31" value="" style="rounded=0;whiteSpace=wrap;html=1;fillColor=none;" vertex="1" parent="1">
          <mxGeometry x="80" y="210" width="200" height="370" as="geometry" />
        </mxCell>
        <mxCell id="0zSylW8pa7HZD2Femb96-33" style="edgeStyle=orthogonalEdgeStyle;rounded=0;orthogonalLoop=1;jettySize=auto;html=1;entryX=0.005;entryY=0.588;entryDx=0;entryDy=0;entryPerimeter=0;" edge="1" parent="1" source="0zSylW8pa7HZD2Femb96-31" target="0zSylW8pa7HZD2Femb96-5">
          <mxGeometry relative="1" as="geometry" />
        </mxCell>
        <mxCell id="0zSylW8pa7HZD2Femb96-35" value="Postgres" style="shape=cylinder3;whiteSpace=wrap;html=1;boundedLbl=1;backgroundOutline=1;size=15;" vertex="1" parent="1">
          <mxGeometry x="1230" y="690" width="90" height="120" as="geometry" />
        </mxCell>
        <mxCell id="0zSylW8pa7HZD2Femb96-45" value="Worker v2" style="swimlane;startSize=23;" vertex="1" parent="1">
          <mxGeometry x="1155" y="860" width="200" height="200" as="geometry" />
        </mxCell>
        <mxCell id="0zSylW8pa7HZD2Femb96-46" value="Worker&lt;br&gt;Python" style="rounded=0;whiteSpace=wrap;html=1;" vertex="1" parent="0zSylW8pa7HZD2Femb96-45">
          <mxGeometry x="20" y="30" width="120" height="60" as="geometry" />
        </mxCell>
        <mxCell id="0zSylW8pa7HZD2Femb96-47" value="Worker" style="rounded=0;whiteSpace=wrap;html=1;" vertex="1" parent="0zSylW8pa7HZD2Femb96-45">
          <mxGeometry x="20" y="110" width="120" height="60" as="geometry" />
        </mxCell>
        <mxCell id="0zSylW8pa7HZD2Femb96-66" style="edgeStyle=orthogonalEdgeStyle;rounded=0;orthogonalLoop=1;jettySize=auto;html=1;entryX=0.25;entryY=1;entryDx=0;entryDy=0;" edge="1" parent="1" source="0zSylW8pa7HZD2Femb96-50" target="0zSylW8pa7HZD2Femb96-31">
          <mxGeometry relative="1" as="geometry">
            <Array as="points">
              <mxPoint x="1285" y="1300" />
              <mxPoint x="130" y="1300" />
            </Array>
          </mxGeometry>
        </mxCell>
        <mxCell id="0zSylW8pa7HZD2Femb96-50" value="" style="rounded=0;whiteSpace=wrap;html=1;fillColor=none;" vertex="1" parent="1">
          <mxGeometry x="1130" y="640" width="310" height="480" as="geometry" />
        </mxCell>
        <mxCell id="0zSylW8pa7HZD2Femb96-51" value="RabbitMQ&lt;br&gt;Localhost:5672" style="shape=cylinder3;whiteSpace=wrap;html=1;boundedLbl=1;backgroundOutline=1;size=15;" vertex="1" parent="1">
          <mxGeometry x="805" y="690" width="90" height="130" as="geometry" />
        </mxCell>
        <mxCell id="0zSylW8pa7HZD2Femb96-52" value="Worker v1" style="swimlane;startSize=23;" vertex="1" parent="1">
          <mxGeometry x="750" y="870" width="200" height="200" as="geometry" />
        </mxCell>
        <mxCell id="0zSylW8pa7HZD2Femb96-53" value="Worker&lt;br&gt;Python" style="rounded=0;whiteSpace=wrap;html=1;" vertex="1" parent="0zSylW8pa7HZD2Femb96-52">
          <mxGeometry x="20" y="30" width="120" height="60" as="geometry" />
        </mxCell>
        <mxCell id="0zSylW8pa7HZD2Femb96-54" value="Worker" style="rounded=0;whiteSpace=wrap;html=1;" vertex="1" parent="0zSylW8pa7HZD2Femb96-52">
          <mxGeometry x="20" y="110" width="120" height="60" as="geometry" />
        </mxCell>
        <mxCell id="0zSylW8pa7HZD2Femb96-65" style="edgeStyle=orthogonalEdgeStyle;rounded=0;orthogonalLoop=1;jettySize=auto;html=1;entryX=0.5;entryY=1;entryDx=0;entryDy=0;" edge="1" parent="1" source="0zSylW8pa7HZD2Femb96-55" target="0zSylW8pa7HZD2Femb96-31">
          <mxGeometry relative="1" as="geometry">
            <Array as="points">
              <mxPoint x="855" y="1220" />
              <mxPoint x="180" y="1220" />
            </Array>
          </mxGeometry>
        </mxCell>
        <mxCell id="0zSylW8pa7HZD2Femb96-55" value="" style="rounded=0;whiteSpace=wrap;html=1;fillColor=none;" vertex="1" parent="1">
          <mxGeometry x="700" y="640" width="310" height="480" as="geometry" />
        </mxCell>
        <mxCell id="0zSylW8pa7HZD2Femb96-59" value="&lt;font style=&quot;font-size: 50px;&quot;&gt;v1&lt;/font&gt;" style="text;html=1;align=center;verticalAlign=middle;whiteSpace=wrap;rounded=0;" vertex="1" parent="1">
          <mxGeometry x="825" y="450" width="60" height="30" as="geometry" />
        </mxCell>
        <mxCell id="0zSylW8pa7HZD2Femb96-61" style="edgeStyle=orthogonalEdgeStyle;rounded=0;orthogonalLoop=1;jettySize=auto;html=1;entryX=0.541;entryY=0.01;entryDx=0;entryDy=0;entryPerimeter=0;" edge="1" parent="1" source="0zSylW8pa7HZD2Femb96-9" target="0zSylW8pa7HZD2Femb96-50">
          <mxGeometry relative="1" as="geometry">
            <Array as="points">
              <mxPoint x="730" y="220" />
              <mxPoint x="730" y="370" />
              <mxPoint x="1298" y="370" />
            </Array>
          </mxGeometry>
        </mxCell>
        <mxCell id="0zSylW8pa7HZD2Femb96-62" style="edgeStyle=orthogonalEdgeStyle;rounded=0;orthogonalLoop=1;jettySize=auto;html=1;entryX=0.541;entryY=0.008;entryDx=0;entryDy=0;entryPerimeter=0;" edge="1" parent="1" source="0zSylW8pa7HZD2Femb96-10" target="0zSylW8pa7HZD2Femb96-50">
          <mxGeometry relative="1" as="geometry" />
        </mxCell>
        <mxCell id="0zSylW8pa7HZD2Femb96-63" style="edgeStyle=orthogonalEdgeStyle;rounded=0;orthogonalLoop=1;jettySize=auto;html=1;entryX=0.537;entryY=0.006;entryDx=0;entryDy=0;entryPerimeter=0;" edge="1" parent="1" source="0zSylW8pa7HZD2Femb96-11" target="0zSylW8pa7HZD2Femb96-50">
          <mxGeometry relative="1" as="geometry">
            <Array as="points">
              <mxPoint x="730" y="510" />
              <mxPoint x="730" y="370" />
              <mxPoint x="1297" y="370" />
            </Array>
          </mxGeometry>
        </mxCell>
        <mxCell id="0zSylW8pa7HZD2Femb96-64" value="&lt;font style=&quot;font-size: 50px;&quot;&gt;v2&lt;/font&gt;" style="text;html=1;align=center;verticalAlign=middle;whiteSpace=wrap;rounded=0;" vertex="1" parent="1">
          <mxGeometry x="1270" y="440" width="60" height="30" as="geometry" />
        </mxCell>
        <mxCell id="0zSylW8pa7HZD2Femb96-67" value="Send Result" style="text;html=1;align=center;verticalAlign=middle;whiteSpace=wrap;rounded=0;" vertex="1" parent="1">
          <mxGeometry x="330" y="1190" width="60" height="30" as="geometry" />
        </mxCell>
        <mxCell id="0zSylW8pa7HZD2Femb96-68" value="Send Result" style="text;html=1;align=center;verticalAlign=middle;whiteSpace=wrap;rounded=0;" vertex="1" parent="1">
          <mxGeometry x="330" y="1260" width="60" height="30" as="geometry" />
        </mxCell>
        <mxCell id="0zSylW8pa7HZD2Femb96-70" value="Note: workers do long pooling at database to check for any items to process" style="text;html=1;align=center;verticalAlign=middle;whiteSpace=wrap;rounded=0;" vertex="1" parent="1">
          <mxGeometry x="1240" y="1080" width="480" height="30" as="geometry" />
        </mxCell>
        <mxCell id="0zSylW8pa7HZD2Femb96-72" style="edgeStyle=orthogonalEdgeStyle;rounded=0;orthogonalLoop=1;jettySize=auto;html=1;exitX=0;exitY=0;exitDx=70;exitDy=80;exitPerimeter=0;" edge="1" parent="1" source="0zSylW8pa7HZD2Femb96-80" target="0zSylW8pa7HZD2Femb96-5">
          <mxGeometry relative="1" as="geometry">
            <mxPoint x="380" y="120" as="sourcePoint" />
          </mxGeometry>
        </mxCell>
        <mxCell id="0zSylW8pa7HZD2Femb96-73" value="Postgres Database" style="shape=cylinder3;whiteSpace=wrap;html=1;boundedLbl=1;backgroundOutline=1;size=15;" vertex="1" parent="1">
          <mxGeometry x="1040" y="90" width="150" height="120" as="geometry" />
        </mxCell>
        <mxCell id="0zSylW8pa7HZD2Femb96-74" style="edgeStyle=orthogonalEdgeStyle;rounded=0;orthogonalLoop=1;jettySize=auto;html=1;entryX=0.5;entryY=1;entryDx=0;entryDy=0;entryPerimeter=0;" edge="1" parent="1" source="0zSylW8pa7HZD2Femb96-10" target="0zSylW8pa7HZD2Femb96-73">
          <mxGeometry relative="1" as="geometry" />
        </mxCell>
        <mxCell id="0zSylW8pa7HZD2Femb96-75" style="edgeStyle=orthogonalEdgeStyle;rounded=0;orthogonalLoop=1;jettySize=auto;html=1;entryX=0.5;entryY=1;entryDx=0;entryDy=0;entryPerimeter=0;" edge="1" parent="1" source="0zSylW8pa7HZD2Femb96-9" target="0zSylW8pa7HZD2Femb96-73">
          <mxGeometry relative="1" as="geometry">
            <Array as="points">
              <mxPoint x="730" y="220" />
              <mxPoint x="730" y="370" />
              <mxPoint x="1115" y="370" />
            </Array>
          </mxGeometry>
        </mxCell>
        <mxCell id="0zSylW8pa7HZD2Femb96-76" style="edgeStyle=orthogonalEdgeStyle;rounded=0;orthogonalLoop=1;jettySize=auto;html=1;entryX=0.5;entryY=1;entryDx=0;entryDy=0;entryPerimeter=0;" edge="1" parent="1" source="0zSylW8pa7HZD2Femb96-11" target="0zSylW8pa7HZD2Femb96-73">
          <mxGeometry relative="1" as="geometry">
            <Array as="points">
              <mxPoint x="730" y="510" />
              <mxPoint x="730" y="370" />
              <mxPoint x="1115" y="370" />
            </Array>
          </mxGeometry>
        </mxCell>
        <mxCell id="0zSylW8pa7HZD2Femb96-77" style="edgeStyle=orthogonalEdgeStyle;rounded=0;orthogonalLoop=1;jettySize=auto;html=1;entryX=0;entryY=0;entryDx=70;entryDy=110;entryPerimeter=0;" edge="1" parent="1" source="0zSylW8pa7HZD2Femb96-55" target="0zSylW8pa7HZD2Femb96-5">
          <mxGeometry relative="1" as="geometry" />
        </mxCell>
        <mxCell id="0zSylW8pa7HZD2Femb96-78" style="edgeStyle=orthogonalEdgeStyle;rounded=0;orthogonalLoop=1;jettySize=auto;html=1;entryX=0.333;entryY=1;entryDx=0;entryDy=0;entryPerimeter=0;" edge="1" parent="1" source="0zSylW8pa7HZD2Femb96-50" target="0zSylW8pa7HZD2Femb96-5">
          <mxGeometry relative="1" as="geometry">
            <Array as="points">
              <mxPoint x="1285" y="1260" />
              <mxPoint x="400" y="1260" />
            </Array>
          </mxGeometry>
        </mxCell>
        <mxCell id="0zSylW8pa7HZD2Femb96-79" value="Send Results" style="text;html=1;align=center;verticalAlign=middle;whiteSpace=wrap;rounded=0;" vertex="1" parent="1">
          <mxGeometry x="300" y="710" width="60" height="30" as="geometry" />
        </mxCell>
        <mxCell id="0zSylW8pa7HZD2Femb96-80" value="Web Client&lt;br&gt;(React)&amp;nbsp;" style="shape=cube;whiteSpace=wrap;html=1;boundedLbl=1;backgroundOutline=1;darkOpacity=0.05;darkOpacity2=0.1;" vertex="1" parent="1">
          <mxGeometry x="290" y="60" width="120" height="80" as="geometry" />
        </mxCell>
      </root>
    </mxGraphModel>
  </diagram>
</mxfile>
